<?xml version="1.0" encoding="utf-8"?><svg xmlns="http://www.w3.org/2000/svg" xmlns:xlink="http://www.w3.org/1999/xlink"><style>:root>svg{display:none}:root>svg:target{display:block}</style><svg fill="none" viewBox="0 0 24 24" id="arrow-right" xmlns="http://www.w3.org/2000/svg"><path d="M5 12h14M12 5l7 7-7 7" stroke="#fff" stroke-width="2" stroke-linecap="round" stroke-linejoin="round"/></svg><svg fill="none" viewBox="0 0 20 20" id="bar-chart" xmlns="http://www.w3.org/2000/svg"><path d="M15 16.666V8.333M10 16.666V3.333M5 16.666v-5" stroke="#52BD94" stroke-width="1.667" stroke-linecap="round" stroke-linejoin="round"/></svg><svg fill="none" viewBox="0 0 17 17" id="bubble" xmlns="http://www.w3.org/2000/svg"><path d="M15.995 10.995a1.667 1.667 0 0 1-1.667 1.666h-10L.995 15.995V2.66A1.667 1.667 0 0 1 2.66.995h11.667a1.667 1.667 0 0 1 1.667 1.666v8.334Z" stroke="#fff" stroke-width="1.667" stroke-linecap="round" stroke-linejoin="round"/></svg><svg fill="none" viewBox="0 0 18 18" id="bubble-rounded" xmlns="http://www.w3.org/2000/svg"><path d="M16.5 8.583a6.982 6.982 0 0 1-.75 3.167 7.084 7.084 0 0 1-6.333 3.917 6.983 6.983 0 0 1-3.167-.75L1.5 16.5l1.583-4.75a6.983 6.983 0 0 1-.75-3.167A7.083 7.083 0 0 1 6.25 2.25a6.983 6.983 0 0 1 3.167-.75h.416A7.067 7.067 0 0 1 16.5 8.167v.416Z" stroke="#fff" stroke-width="1.667" stroke-linecap="round" stroke-linejoin="round"/></svg><svg fill="none" viewBox="0 0 190 220" id="card" xmlns="http://www.w3.org/2000/svg"><g clip-path="url(#ea)"><rect x="48.658" width="146" height="188" rx="10" transform="rotate(15 48.658 0)" fill="#161C28"/><circle cx="8.755" cy="163.755" r="79" transform="rotate(15 8.755 163.755)" fill="#232937"/><circle cx="202.922" cy="46.947" r="79" transform="rotate(15 202.922 46.947)" fill="#232937"/><circle opacity=".5" cx="84.098" cy="34.152" r="14" transform="rotate(15 84.098 34.152)" fill="#fff"/><circle opacity=".5" cx="68.031" cy="29.847" r="14" transform="rotate(15 68.031 29.847)" fill="#fff"/><path d="m46.452 78.09-1.021-.274a2.197 2.197 0 0 0-.503-1.564 2.389 2.389 0 0 0-.611-.535 2.912 2.912 0 0 0-.776-.331 2.662 2.662 0 0 0-1.491.015c-.48.148-.91.44-1.29.877-.375.437-.661 1.02-.857 1.75-.195.73-.24 1.38-.133 1.946.11.568.336 1.035.678 1.404.346.369.773.622 1.284.758.28.075.559.109.837.101.28-.007.544-.058.796-.153a2.247 2.247 0 0 0 1.219-1.107l1.02.273c-.192.41-.435.759-.73 1.045a3.275 3.275 0 0 1-.99.665 3.435 3.435 0 0 1-1.16.267 3.925 3.925 0 0 1-1.248-.136c-.719-.192-1.311-.54-1.777-1.04-.466-.502-.772-1.12-.92-1.853-.147-.733-.102-1.545.136-2.434.239-.889.605-1.614 1.1-2.176.494-.561 1.068-.943 1.722-1.144.654-.201 1.34-.206 2.06-.013.425.114.808.283 1.148.506.343.224.633.496.87.816.24.317.415.672.527 1.067.112.392.149.815.11 1.27Zm-.036 6.202 1.695-6.323.938.252-.256.955.066.017c.2-.282.476-.48.83-.594.354-.114.72-.12 1.099-.018.071.019.16.044.266.075.106.032.186.058.24.078l-.265.988a2.924 2.924 0 0 0-.216-.098c-.11-.05-.23-.092-.359-.127a1.78 1.78 0 0 0-.875-.027 1.51 1.51 0 0 0-.71.375 1.47 1.47 0 0 0-.41.706l-1.071 4-.972-.26Zm6.736 1.946c-.609-.164-1.098-.439-1.468-.826a2.804 2.804 0 0 1-.712-1.409c-.106-.551-.071-1.151.102-1.799.174-.647.445-1.186.813-1.617.372-.433.807-.73 1.307-.894.503-.165 1.04-.171 1.61-.018.33.088.64.23.932.426.292.195.536.452.734.77.198.315.32.695.37 1.14.047.445-.007.963-.166 1.553l-.11.411-4.873-1.305.225-.84L55.8 82.87c.096-.357.11-.694.042-1.012a1.67 1.67 0 0 0-.423-.824 1.743 1.743 0 0 0-.849-.488 1.805 1.805 0 0 0-1.081.02c-.331.114-.613.303-.845.567-.233.264-.396.57-.49.92l-.15.559c-.127.477-.153.904-.078 1.28.08.374.244.688.494.94.251.25.573.427.965.532.255.068.495.095.72.078.229-.018.438-.08.628-.185.19-.107.356-.26.497-.457l.868.514a2.154 2.154 0 0 1-.723.707 2.514 2.514 0 0 1-1.014.328 3.32 3.32 0 0 1-1.21-.112Zm5.952 1.612c-.4-.107-.744-.28-1.03-.519a1.937 1.937 0 0 1-.6-.87c-.115-.343-.117-.72-.006-1.132.097-.362.247-.636.45-.823.203-.19.442-.317.715-.382.273-.065.563-.09.868-.076.308.012.614.038.918.078.398.054.72.1.965.14.248.037.436.038.563.005.13-.033.215-.128.257-.284l.009-.033c.108-.406.082-.752-.08-1.036-.16-.284-.463-.486-.91-.606-.464-.124-.855-.12-1.172.012-.318.133-.562.3-.73.502l-.834-.576c.267-.34.567-.58.899-.721a2.556 2.556 0 0 1 1.027-.21c.353 0 .688.043 1.007.128.203.054.43.142.68.262.253.118.484.284.69.498.21.215.358.494.443.838.084.343.06.766-.075 1.268l-1.117 4.165-.971-.26.23-.856-.05-.013c-.103.12-.252.237-.447.352a1.968 1.968 0 0 1-.72.235c-.285.041-.611.012-.98-.086Zm.382-.833c.384.103.728.114 1.032.034a1.596 1.596 0 0 0 1.165-1.122l.238-.889c-.054.039-.157.06-.308.063a4.746 4.746 0 0 1-.505-.025 21.903 21.903 0 0 1-.963-.126 3.84 3.84 0 0 0-.751-.029c-.236.014-.44.075-.614.184-.17.108-.288.285-.354.532-.09.338-.034.626.17.866.206.238.503.408.89.512Zm6.68 2.708a2.563 2.563 0 0 1-1.288-.773c-.331-.377-.545-.84-.642-1.39-.096-.552-.055-1.163.125-1.833.178-.664.446-1.21.805-1.637.358-.427.776-.72 1.254-.877.477-.158.982-.165 1.514-.022.412.11.719.266.92.467.206.2.349.402.429.609.083.204.146.371.188.5l.082.022.834-3.112.971.26-2.258 8.43-.939-.25.26-.972-.115-.031a6.469 6.469 0 0 1-.421.355 1.873 1.873 0 0 1-.689.313c-.28.07-.623.05-1.03-.06Zm.366-.838c.39.105.746.092 1.07-.04.324-.133.604-.362.841-.687.238-.328.42-.73.549-1.208.126-.472.168-.903.126-1.294a1.867 1.867 0 0 0-.387-.994c-.215-.273-.52-.462-.915-.568-.412-.11-.783-.096-1.114.041a1.964 1.964 0 0 0-.842.688c-.23.32-.404.703-.523 1.148-.121.45-.162.877-.123 1.282.042.402.17.748.383 1.038.217.287.529.486.935.594Zm4.482 1.995 1.694-6.322.971.26-1.694 6.323-.971-.26Zm2.47-7.243a.715.715 0 0 1-.438-.325.644.644 0 0 1-.077-.52.644.644 0 0 1 .326-.41.715.715 0 0 1 .542-.063.7.7 0 0 1 .434.324c.102.166.13.34.081.52a.638.638 0 0 1-.33.41.7.7 0 0 1-.538.064Zm4.724 2.395-.22.823-3.277-.878.22-.823 3.277.878Zm-1.916-2.137.972.26-1.615 6.026c-.073.275-.089.491-.046.65a.64.64 0 0 0 .24.355 1.3 1.3 0 0 0 .39.175c.107.029.196.047.268.054l.173.011-.036.926a2.042 2.042 0 0 1-.296 0 2.099 2.099 0 0 1-.46-.079 2.024 2.024 0 0 1-.759-.393 1.659 1.659 0 0 1-.506-.713c-.105-.287-.109-.615-.01-.983l1.685-6.29Zm13.411 5.782-1.02-.274a2.196 2.196 0 0 0-.504-1.564 2.389 2.389 0 0 0-.61-.534 2.912 2.912 0 0 0-.777-.332 2.662 2.662 0 0 0-1.49.015c-.481.148-.911.44-1.29.877-.376.437-.662 1.021-.857 1.751-.196.73-.24 1.378-.133 1.945.11.568.335 1.036.678 1.404.345.369.773.622 1.284.759.28.075.559.108.837.1.279-.007.544-.058.796-.152a2.24 2.24 0 0 0 1.219-1.107l1.02.273c-.192.41-.435.758-.73 1.044a3.273 3.273 0 0 1-2.151.932 3.925 3.925 0 0 1-1.247-.135c-.72-.193-1.312-.54-1.777-1.041-.466-.502-.773-1.119-.92-1.853-.148-.733-.102-1.545.136-2.434.238-.889.605-1.614 1.1-2.176.494-.561 1.068-.943 1.722-1.144.654-.201 1.34-.206 2.06-.013.424.114.807.283 1.147.506.343.225.633.496.871.816.239.317.414.673.526 1.067.113.392.15.815.11 1.27Zm-.035 6.202 1.694-6.323.939.252-.256.955.066.017c.199-.281.475-.48.83-.593.353-.114.72-.12 1.098-.02.072.02.16.045.267.077.106.031.186.057.24.077l-.265.988a2.97 2.97 0 0 0-.217-.098c-.11-.05-.23-.092-.358-.127a1.781 1.781 0 0 0-.876-.027 1.47 1.47 0 0 0-1.119 1.081l-1.072 4.001-.971-.26Zm6.133 1.802c-.4-.107-.743-.28-1.03-.519a1.937 1.937 0 0 1-.6-.87c-.114-.343-.116-.72-.006-1.132.097-.362.247-.636.45-.823.204-.19.443-.317.716-.382.273-.065.562-.09.867-.076.309.012.615.038.919.078.397.054.719.1.964.14.249.037.437.038.563.005.13-.033.215-.128.257-.284l.01-.033c.108-.406.082-.752-.08-1.036-.16-.284-.463-.486-.91-.606-.464-.124-.855-.12-1.173.013-.318.132-.56.3-.73.5l-.833-.575c.267-.34.567-.58.899-.721a2.556 2.556 0 0 1 1.026-.21c.353 0 .689.043 1.007.128.203.055.43.142.68.262.254.118.484.284.692.498.21.215.357.494.441.838.085.343.06.766-.075 1.268L98.74 98.31l-.971-.26.229-.856-.05-.013c-.102.12-.251.237-.447.352a1.968 1.968 0 0 1-.72.235c-.285.041-.61.013-.978-.086Zm.382-.833c.385.103.729.114 1.033.034a1.596 1.596 0 0 0 1.165-1.121l.238-.89c-.054.039-.157.06-.308.063a4.744 4.744 0 0 1-.505-.025 21.845 21.845 0 0 1-.963-.125 3.84 3.84 0 0 0-.751-.03c-.236.014-.44.075-.614.184-.17.108-.288.285-.355.532-.09.338-.034.626.17.866.207.238.504.409.89.512Zm6.681 2.708a2.56 2.56 0 0 1-1.288-.773c-.332-.377-.546-.84-.643-1.39-.096-.552-.054-1.163.125-1.833.178-.664.447-1.21.805-1.637.359-.427.777-.72 1.254-.877.478-.157.983-.165 1.515-.022.412.11.718.266.92.467.206.2.349.402.428.609.084.204.147.371.188.5l.083.022.834-3.112.971.26-2.259 8.431-.938-.252.26-.971-.115-.031a6.392 6.392 0 0 1-.422.355 1.87 1.87 0 0 1-.688.314c-.281.069-.624.049-1.03-.06Zm.366-.838c.389.105.746.092 1.069-.04.324-.133.605-.362.842-.687.238-.328.42-.73.548-1.207.127-.472.169-.904.126-1.295a1.862 1.862 0 0 0-.386-.994c-.215-.273-.52-.462-.916-.568-.411-.11-.782-.096-1.113.041a1.96 1.96 0 0 0-.842.688c-.23.321-.405.704-.524 1.148-.12.45-.161.877-.123 1.282.042.402.17.748.384 1.038.217.287.529.486.935.594Z" fill="#E6E6E6"/><circle cx="35.144" cy="96.8" r="2" transform="rotate(15 35.144 96.8)" fill="#D9D9D9"/><circle cx="45.769" cy="99.647" r="2" transform="rotate(15 45.769 99.647)" fill="#D9D9D9"/><circle cx="56.394" cy="102.494" r="2" transform="rotate(15 56.394 102.494)" fill="#D9D9D9"/><circle cx="67.019" cy="105.341" r="2" transform="rotate(15 67.019 105.341)" fill="#D9D9D9"/><path d="m84.636 105.168-2.259 8.43-1.02-.274 1.971-7.36-.05-.013-2.423.815.278-1.037 2.482-.835 1.02.274Zm.166 9.079.198-.741 3.599-2.3c.422-.269.774-.507 1.056-.714.282-.21.506-.418.67-.624.167-.208.286-.441.355-.699.08-.296.076-.572-.008-.827a1.435 1.435 0 0 0-.442-.656 1.932 1.932 0 0 0-.776-.398 1.77 1.77 0 0 0-.902-.025 1.434 1.434 0 0 0-.704.406 1.808 1.808 0 0 0-.419.788l-.971-.26c.132-.494.362-.897.69-1.209.328-.312.716-.52 1.164-.624a2.907 2.907 0 0 1 1.413.044c.495.132.904.354 1.23.665.325.31.55.672.671 1.084.122.412.125.835.009 1.268-.084.31-.221.599-.413.865-.188.264-.468.54-.84.829-.368.287-.863.625-1.485 1.014l-2.436 1.518-.017.066 3.918 1.05-.242.905-5.319-1.425Zm9.835 2.759a3.709 3.709 0 0 1-1.378-.669c-.373-.3-.64-.649-.8-1.048a2.166 2.166 0 0 1-.091-1.273l1.037.278c-.05.277-.02.537.091.779.113.239.288.447.525.626.238.178.519.31.842.397.362.097.7.12 1.014.069a1.63 1.63 0 0 0 .8-.351c.22-.182.369-.421.448-.718.083-.31.08-.603-.01-.88a1.58 1.58 0 0 0-.526-.741c-.26-.214-.604-.378-1.032-.493l-.675-.181.242-.905.675.18c.335.09.645.108.93.055.287-.052.532-.169.733-.35.204-.181.346-.419.426-.716.076-.285.08-.55.01-.795a1.345 1.345 0 0 0-.403-.638 1.792 1.792 0 0 0-.76-.393 2.2 2.2 0 0 0-.865-.06 1.588 1.588 0 0 0-.749.289c-.214.155-.366.37-.455.646l-.988-.265c.135-.437.372-.788.71-1.053.34-.268.736-.441 1.19-.52a3.261 3.261 0 0 1 1.413.079c.52.139.94.365 1.257.676.317.309.53.661.638 1.058.109.397.11.794.003 1.192-.127.475-.36.846-.7 1.114-.337.268-.735.41-1.195.425l-.018.066c.51.23.864.568 1.066 1.013.202.443.23.931.088 1.467a2.211 2.211 0 0 1-.706 1.134 2.636 2.636 0 0 1-1.242.585c-.484.094-.999.067-1.545-.079Zm4.829-.683.225-.839 5.275-4.869.609.163-.349 1.301-.411-.11-3.986 3.679-.018.065 4.989 1.337-.243.906-6.091-1.633Zm3.504 2.792.532-1.984.105-.391 1.622-6.054.971.26-2.258 8.43-.972-.261Z" fill="#F0F0EF"/><path d="M109.622 181.067c-.62-.166-1.103-.476-1.449-.931-.345-.457-.547-1.039-.604-1.745-.057-.71.037-1.523.283-2.439.244-.911.567-1.658.971-2.241.407-.585.874-.99 1.401-1.213.531-.225 1.104-.256 1.719-.091.614.165 1.094.477 1.438.937.348.458.551 1.041.608 1.751.06.707-.032 1.516-.276 2.427-.246.917-.57 1.668-.974 2.254-.404.583-.869.986-1.397 1.21-.526.22-1.1.247-1.72.081Zm.243-.905c.614.164 1.171-.004 1.67-.506.499-.501.896-1.301 1.19-2.398.196-.73.284-1.373.265-1.928-.016-.554-.134-1.005-.352-1.352a1.526 1.526 0 0 0-.934-.682c-.609-.163-1.165.01-1.669.519-.504.506-.902 1.307-1.196 2.402-.195.729-.284 1.37-.268 1.922.017.551.134.999.351 1.342.22.344.534.571.943.681Zm9.256-5.832c.345.096.673.254.985.476.311.222.569.52.774.896.206.373.327.839.362 1.398.036.56-.05 1.226-.258 2-.2.749-.45 1.396-.749 1.939-.295.542-.629.976-1.002 1.302-.37.328-.772.543-1.205.648a2.71 2.71 0 0 1-1.359-.033 2.878 2.878 0 0 1-1.189-.619 2.577 2.577 0 0 1-.695-1.029 2.847 2.847 0 0 1-.134-1.293l1.004.269c-.013.411.081.779.283 1.104.204.322.529.543.974.662.65.174 1.239.028 1.767-.44.531-.466.936-1.218 1.214-2.255l-.066-.018a2.704 2.704 0 0 1-.708.45 2.54 2.54 0 0 1-1.667.114 2.653 2.653 0 0 1-1.233-.715 2.806 2.806 0 0 1-.698-1.25c-.125-.486-.115-1.001.03-1.545.139-.515.38-.957.725-1.323a2.769 2.769 0 0 1 1.256-.766c.491-.142 1.021-.133 1.589.028Zm-.242.906a1.784 1.784 0 0 0-1.004.009c-.32.097-.6.269-.84.516a2.026 2.026 0 0 0-.496.895 2.072 2.072 0 0 0-.026 1.021 1.9 1.9 0 0 0 .455.854c.226.24.513.407.859.499.26.07.517.085.769.043.253-.044.487-.132.702-.266.219-.135.407-.304.564-.506a1.954 1.954 0 0 0 .346-1.672 1.956 1.956 0 0 0-.463-.874 1.738 1.738 0 0 0-.866-.519Zm7.863.836-5.421 9.365-.889-.238 5.421-9.365.889.238Zm-1.23 9.13.199-.741 3.599-2.301c.422-.269.774-.507 1.056-.714.282-.209.506-.417.67-.623.167-.208.286-.441.355-.699a1.424 1.424 0 0 0-.008-.827 1.437 1.437 0 0 0-.442-.657 1.925 1.925 0 0 0-.776-.397 1.77 1.77 0 0 0-.902-.026 1.431 1.431 0 0 0-.704.407 1.802 1.802 0 0 0-.419.788l-.971-.261c.132-.493.362-.897.69-1.209.328-.312.716-.52 1.164-.623a2.91 2.91 0 0 1 1.414.043c.493.133.903.354 1.229.665.325.311.549.672.671 1.084.122.412.125.835.009 1.269-.083.31-.221.598-.413.864-.188.264-.468.541-.84.83-.368.286-.863.624-1.485 1.013l-2.436 1.518-.017.066 3.918 1.05-.242.906-5.319-1.425Zm9.622 2.701a2.994 2.994 0 0 1-1.228-.638 2.502 2.502 0 0 1-.718-1.039 2.223 2.223 0 0 1-.076-1.247l.988.265c-.064.391.024.753.265 1.085.243.33.581.553 1.012.669.345.092.674.094.987.004.315-.089.587-.255.816-.496.233-.243.398-.545.494-.904.099-.368.106-.718.021-1.049a1.84 1.84 0 0 0-.474-.864 1.92 1.92 0 0 0-.891-.512 2.742 2.742 0 0 0-.827-.094c-.292.007-.544.05-.753.129l-.924-.371 1.622-4.012 4.38 1.173-.243.906-3.524-.944-.962 2.406.049.014c.21-.091.457-.147.742-.168.285-.02.569.007.852.083.515.138.942.385 1.279.74.341.353.57.773.686 1.26.119.488.106 1.005-.04 1.551a2.951 2.951 0 0 1-.749 1.343 2.74 2.74 0 0 1-1.255.732 2.912 2.912 0 0 1-1.529-.022Z" fill="#F8F8FA"/><rect opacity=".2" x="21.307" y="140.715" width="34" height="22" rx="4" transform="rotate(15 21.307 140.715)" fill="#fff"/></g><defs><clipPath id="ea"><rect x="48.658" width="146" height="188" rx="10" transform="rotate(15 48.658 0)" fill="#fff"/></clipPath></defs></svg><svg fill="none" viewBox="0 0 30 30" id="chart" xmlns="http://www.w3.org/2000/svg"><path d="M26.512 19.863A12.5 12.5 0 1 1 10 3.538" stroke="#54BD95" stroke-width="2" stroke-linecap="round" stroke-linejoin="round"/><path d="M27.5 15A12.5 12.5 0 0 0 15 2.5V15h12.5Z" stroke="#54BD95" stroke-width="2" stroke-linecap="round" stroke-linejoin="round"/></svg><svg fill="none" viewBox="0 0 14 11" id="check" xmlns="http://www.w3.org/2000/svg"><path d="M1 4.733 5.174 9 13 1" stroke="#fff" stroke-width="2"/></svg><svg fill="none" viewBox="0 0 22 22" id="check-outline" xmlns="http://www.w3.org/2000/svg"><path fill-rule="evenodd" clip-rule="evenodd" d="M1.833 11a9.167 9.167 0 1 1 18.334 0 9.167 9.167 0 0 1-18.334 0ZM11 .167C5.017.167.167 5.017.167 11c0 5.983 4.85 10.833 10.833 10.833 5.983 0 10.833-4.85 10.833-10.833C21.833 5.017 16.983.167 11 .167Zm-.07 14.527 5.79-6-1.44-1.388-5.165 5.353-3.501-2.721-1.228 1.579 4.21 3.273.71.551.624-.647Z" fill="#2B9B5B"/></svg><svg fill="none" viewBox="0 0 73 86" id="coins" xmlns="http://www.w3.org/2000/svg"><path d="M72.058 20.849v-.422h-.035c-.21-5.202-3.726-10.37-10.597-14.324-14.096-8.137-36.944-8.137-50.951 0C3.462 10.181-.018 15.523 0 20.866V65.14c.035 5.342 3.585 10.685 10.633 14.745C17.698 83.96 26.925 86 36.135 86c9.227 0 18.419-2.039 25.449-6.116 7.012-4.078 10.492-9.42 10.474-14.746V20.85c0 .017 0 0 0 0ZM17.804 14.24l1.95-1.124c.493-.282 1.266-.282 1.776 0l2.407 1.388c.528-.316 1.073-.615 1.6-.931l-2.408-1.389c-.492-.281-.492-.738 0-1.02l1.95-1.124c.493-.281 1.284-.281 1.776 0l3.076 1.775.404-.123a29.889 29.889 0 0 1 11.002-1.248c3.058.229 5.8.95 8.313 2.004.984.404 1.898.86 2.724 1.335 2.18 1.266 3.85 2.742 5.15 4.412l.263.457c.3.615-.052 1.037-1.09 1.283-1.089.28-2.196.527-3.303.773-.774.158-1.319.123-1.793-.158-.123-.07-.228-.158-.352-.246-.738-.686-1.406-1.424-2.197-2.092a14.983 14.983 0 0 0-2.355-1.704 15.32 15.32 0 0 0-4.095-1.617c-2.39-.598-4.727-.457-7.082.088l-.088.017 5.958 3.445c.492.281.492.738 0 1.02l-1.951 1.124c-.492.281-1.283.281-1.775 0l-6.837-3.937c-.51.299-1.055.615-1.6.932l6.837 3.937c.492.28.492.738 0 1.019l-1.95 1.125c-.492.28-1.266.28-1.775 0l-6.24-3.603c-1.388 1.687-1.828 3.357-.263 5.097.668.738 1.529 1.388 2.53 1.968.88.51 1.846.949 2.883 1.353 1.16.422 2.39.809 3.585 1.248.194.07.352.14.492.229.475.28.545.597.264 1.037a20.378 20.378 0 0 1-1.353 1.95c-.405.58-1.16.791-2.25.58a39.45 39.45 0 0 1-3.216-.878c-1.934-.633-3.674-1.371-5.185-2.25-1.582-.914-2.917-1.968-3.99-3.164-2.513-2.847-2.46-5.747-.404-8.664.404-.58.967-1.09 1.459-1.635l-2.918-1.687c-.421-.264-.421-.72.07-1.002Zm-7.17 21.372c14.112 8.155 36.925 8.155 50.95 0 2.179-1.266 3.99-2.672 5.483-4.148v.615c.018 3.656-2.9 7.47-7.997 10.422-6.045 3.515-14.183 5.449-22.935 5.449-8.753 0-16.943-1.934-23.024-5.449-5.15-2.97-8.12-6.801-8.155-10.44v-.72a29.025 29.025 0 0 0 5.677 4.27Zm48.454 28.911c-6.046 3.515-14.183 5.448-22.936 5.448-8.752 0-16.942-1.933-23.023-5.448-5.15-2.97-8.12-6.801-8.155-10.44v-.527c1.546 1.53 3.392 2.97 5.66 4.27 7.064 4.078 16.291 6.117 25.5 6.117 9.228 0 18.42-2.039 25.45-6.116 2.179-1.265 3.99-2.671 5.483-4.148v.44c.035 3.655-2.882 7.451-7.979 10.404Zm0-11.002c-6.046 3.515-14.183 5.448-22.936 5.448-8.752 0-16.942-1.933-23.023-5.448-5.15-2.97-8.12-6.802-8.155-10.44v-.527c1.546 1.53 3.392 2.97 5.66 4.27 7.064 4.078 16.291 6.117 25.5 6.117 9.228 0 18.42-2.039 25.45-6.116 2.179-1.266 3.99-2.672 5.483-4.148v.44c.035 3.638-2.882 7.434-7.979 10.404Zm0 22.022c-6.046 3.515-14.183 5.448-22.936 5.448-8.752 0-16.942-1.933-23.023-5.448-5.15-2.97-8.12-6.802-8.155-10.44v-.527c1.546 1.529 3.392 2.97 5.66 4.27 7.064 4.078 16.291 6.117 25.5 6.117 9.228 0 18.42-2.039 25.45-6.116 2.179-1.266 3.99-2.672 5.483-4.148v.44c.035 3.637-2.882 7.451-7.979 10.404Z" fill="#54BD95"/></svg><svg fill="none" viewBox="0 0 30 30" id="command" xmlns="http://www.w3.org/2000/svg"><path d="M22.5 3.75a3.75 3.75 0 0 0-3.75 3.75v15a3.75 3.75 0 1 0 3.75-3.75h-15a3.75 3.75 0 1 0 3.75 3.75v-15a3.75 3.75 0 1 0-3.75 3.75h15a3.75 3.75 0 0 0 0-7.5Z" stroke="#54BD95" stroke-width="2" stroke-linecap="round" stroke-linejoin="round"/></svg><svg fill="none" viewBox="0 0 18 20" id="database" xmlns="http://www.w3.org/2000/svg"><path d="M9.035 6.667c4.142.01 7.503-1.1 7.506-2.48.004-1.381-3.35-2.51-7.493-2.52-4.142-.011-7.503 1.1-7.506 2.48-.004 1.38 3.35 2.509 7.493 2.52ZM16.494 10.02c-.004 1.383-3.34 2.491-7.507 2.48-4.166-.01-7.497-1.136-7.493-2.52" stroke="#fff" stroke-width="1.667" stroke-linecap="round" stroke-linejoin="round"/><path d="m1.51 4.147-.031 11.667c-.004 1.383 3.326 2.509 7.493 2.52 4.167.01 7.503-1.098 7.507-2.48l.03-11.668" stroke="#fff" stroke-width="1.667" stroke-linecap="round" stroke-linejoin="round"/></svg><svg fill="none" viewBox="0 0 487 34" id="hero-title-wave" xmlns="http://www.w3.org/2000/svg"><path d="M4 30c69.63-19.62 262.914-47.088 479 0" stroke="#54BD95" stroke-width="8" stroke-linecap="round"/></svg><svg fill="none" viewBox="0 0 21 21" id="image" xmlns="http://www.w3.org/2000/svg"><path d="m16.272 2.952-11.666.086A1.667 1.667 0 0 0 2.95 4.717l.086 11.666c.007.92.759 1.661 1.68 1.655l11.666-.087a1.667 1.667 0 0 0 1.654-1.679l-.086-11.666a1.667 1.667 0 0 0-1.68-1.654Z" stroke="#fff" stroke-width="1.667" stroke-linecap="round" stroke-linejoin="round"/><path d="M7.566 8.85a1.25 1.25 0 1 0-.019-2.5 1.25 1.25 0 0 0 .019 2.5ZM18.013 12.94l-4.198-4.137-9.098 9.235" stroke="#fff" stroke-width="1.667" stroke-linecap="round" stroke-linejoin="round"/></svg><svg fill="none" viewBox="0 0 154 36" id="l-descript" xmlns="http://www.w3.org/2000/svg"><path fill-rule="evenodd" clip-rule="evenodd" d="M17.071 4.417C18.946 5.325 20 6.555 20 7.84H0c0-1.284 1.054-2.514 2.929-3.422C4.804 3.51 7.348 3 10 3s5.196.51 7.071 1.417ZM2.93 31.583C1.054 30.675 0 29.445 0 28.16h20c0 1.284-1.054 2.514-2.929 3.422C15.196 32.49 12.652 33 10 33s-5.196-.51-7.071-1.417ZM23 20.419v3.871h-6v-3.87h6ZM6 11.71H0v3.872h6V11.71Zm5 0h12v3.872H11V11.71Zm1 8.71H0v3.871h12v-3.87Z" fill="#A6A6A6"/><path d="M41.054 29.288c-1.285 0-2.436-.33-3.452-.991-1.015-.66-1.818-1.62-2.407-2.877-.59-1.257-.885-2.784-.885-4.58 0-1.819.299-3.353.895-4.603.604-1.257 1.417-2.205 2.44-2.844 1.023-.647 2.162-.97 3.42-.97.958 0 1.747.164 2.365.49.618.32 1.108.707 1.47 1.162a7.1 7.1 0 0 1 .842 1.267h.16v-8.16h3.867V29h-3.793v-2.578h-.234c-.2.398-.487.82-.863 1.268-.377.44-.874.816-1.492 1.129-.618.312-1.395.469-2.333.469Zm1.076-3.164c.817 0 1.513-.22 2.088-.66.575-.448 1.012-1.07 1.31-1.865.299-.796.448-1.723.448-2.78 0-1.06-.15-1.979-.448-2.76-.29-.781-.724-1.389-1.3-1.822-.568-.433-1.267-.65-2.098-.65-.86 0-1.577.224-2.152.672-.575.447-1.009 1.065-1.3 1.853-.29.789-.436 1.69-.436 2.706 0 1.023.145 1.936.436 2.738.299.796.735 1.424 1.31 1.886.583.454 1.297.682 2.142.682Zm18.992 3.196c-1.64 0-3.057-.341-4.25-1.023-1.187-.689-2.1-1.662-2.738-2.92-.64-1.263-.96-2.751-.96-4.463 0-1.683.32-3.16.96-4.432.646-1.278 1.548-2.272 2.706-2.983 1.157-.717 2.517-1.076 4.08-1.076 1.008 0 1.96.164 2.855.49.902.32 1.697.817 2.386 1.492.696.675 1.243 1.534 1.641 2.578.398 1.037.597 2.273.597 3.707v1.183H54.986v-2.6h9.716c-.007-.738-.167-1.395-.48-1.97a3.486 3.486 0 0 0-1.31-1.375c-.554-.334-1.2-.5-1.939-.5-.788 0-1.48.191-2.077.575a3.964 3.964 0 0 0-1.396 1.491 4.292 4.292 0 0 0-.5 2.014v2.269c0 .952.173 1.768.522 2.45a3.724 3.724 0 0 0 1.459 1.556c.625.355 1.356.532 2.195.532.56 0 1.069-.078 1.523-.234a3.381 3.381 0 0 0 1.183-.714c.333-.312.586-.7.756-1.161l3.6.405a5.614 5.614 0 0 1-1.299 2.493c-.632.703-1.442 1.25-2.429 1.64-.987.384-2.116.576-3.388.576Zm23.472-12.358-3.515.383a2.823 2.823 0 0 0-.522-1.001 2.59 2.59 0 0 0-.98-.757c-.412-.191-.916-.287-1.513-.287-.803 0-1.477.174-2.024.522-.54.348-.806.799-.8 1.353-.006.476.168.863.523 1.16.362.3.959.544 1.79.736l2.79.597c1.549.333 2.7.863 3.453 1.587.76.724 1.143 1.673 1.15 2.844-.007 1.03-.309 1.94-.906 2.728-.589.781-1.41 1.392-2.46 1.832-1.052.44-2.259.66-3.623.66-2.002 0-3.615-.418-4.836-1.256-1.222-.846-1.95-2.021-2.184-3.527l3.76-.362c.17.739.533 1.296 1.087 1.673.554.376 1.275.564 2.163.564.916 0 1.651-.188 2.205-.564.561-.377.842-.842.842-1.396 0-.469-.181-.856-.544-1.161-.355-.306-.909-.54-1.662-.703L75.998 22c-1.57-.327-2.732-.877-3.485-1.652-.752-.78-1.125-1.768-1.118-2.961-.007-1.009.266-1.882.82-2.621.561-.746 1.339-1.321 2.333-1.726 1.002-.412 2.156-.618 3.463-.618 1.917 0 3.427.409 4.527 1.225 1.108.817 1.794 1.922 2.056 3.314Zm10.67 12.358c-1.634 0-3.036-.36-4.208-1.076-1.165-.718-2.063-1.709-2.696-2.973-.625-1.271-.937-2.734-.937-4.389 0-1.662.32-3.128.959-4.4.639-1.278 1.54-2.272 2.706-2.983 1.172-.717 2.556-1.076 4.155-1.076 1.328 0 2.503.245 3.526.735 1.03.483 1.85 1.169 2.461 2.056.611.881.959 1.911 1.044 3.09h-3.686a3.524 3.524 0 0 0-1.066-1.97c-.554-.534-1.296-.8-2.226-.8-.789 0-1.481.213-2.078.64-.596.418-1.061 1.022-1.395 1.81-.327.789-.49 1.733-.49 2.834 0 1.115.163 2.074.49 2.877.327.795.785 1.41 1.374 1.843.597.426 1.296.639 2.099.639.568 0 1.076-.107 1.523-.32.455-.22.835-.536 1.14-.948.306-.412.515-.913.629-1.502h3.686c-.093 1.158-.433 2.184-1.023 3.079-.589.888-1.392 1.584-2.408 2.088-1.015.497-2.208.746-3.58.746ZM105.44 29V12.636h3.739v2.728h.17c.299-.945.81-1.673 1.534-2.184.732-.519 1.566-.778 2.504-.778.213 0 .451.01.714.032.27.014.493.039.671.075v3.547c-.163-.057-.423-.106-.778-.149a7.14 7.14 0 0 0-1.012-.075c-.703 0-1.335.153-1.896.459a3.357 3.357 0 0 0-1.311 1.246c-.319.533-.479 1.147-.479 1.843V29h-3.856Zm11.894 0V12.636h3.857V29h-3.857Zm1.939-18.686a2.251 2.251 0 0 1-1.577-.607c-.44-.412-.66-.906-.66-1.481 0-.583.22-1.076.66-1.481a2.23 2.23 0 0 1 1.577-.618c.618 0 1.143.206 1.577.618.44.405.66.898.66 1.48 0 .576-.22 1.07-.66 1.482-.434.404-.959.607-1.577.607Zm5.883 24.822v-22.5h3.793v2.706h.224a7.11 7.11 0 0 1 .841-1.267c.362-.455.853-.842 1.47-1.162.618-.326 1.407-.49 2.365-.49 1.265 0 2.405.323 3.42.97 1.023.639 1.833 1.587 2.429 2.844.604 1.25.906 2.784.906 4.603 0 1.796-.295 3.323-.884 4.58-.59 1.258-1.393 2.216-2.408 2.877-1.016.66-2.166.99-3.452.99-.937 0-1.715-.156-2.333-.468-.618-.313-1.115-.689-1.491-1.13a7.275 7.275 0 0 1-.863-1.267h-.16v8.714h-3.857Zm3.782-14.318c0 1.058.149 1.985.448 2.78.305.796.742 1.418 1.31 1.865.575.44 1.271.66 2.088.66.852 0 1.566-.227 2.141-.681.576-.462 1.009-1.09 1.3-1.886.299-.802.448-1.715.448-2.738 0-1.015-.146-1.917-.437-2.706-.291-.788-.725-1.406-1.3-1.853-.575-.448-1.292-.672-2.152-.672-.824 0-1.523.217-2.099.65-.575.434-1.012 1.04-1.31 1.822-.291.781-.437 1.7-.437 2.76Zm23.139-8.182v2.983h-9.406v-2.983h9.406Zm-7.084-3.92h3.856v15.362c0 .519.079.916.235 1.193.163.27.376.455.639.554.263.1.554.15.874.15.241 0 .461-.018.66-.054.206-.035.362-.067.469-.096l.65 3.015c-.206.071-.501.15-.884.235a7.256 7.256 0 0 1-1.385.149c-.966.028-1.836-.117-2.61-.437a4.06 4.06 0 0 1-1.844-1.513c-.447-.682-.667-1.534-.66-2.557V8.716Z" fill="#A6A6A6"/></svg><svg fill="none" viewBox="0 0 196 36" id="l-grammarly" xmlns="http://www.w3.org/2000/svg"><circle cx="15" cy="18" r="15" fill="#A6A6A6"/><path d="M21 18a7 7 0 1 1-2-4.899" stroke="#fff" stroke-width="2"/><path d="m17 20 4-2 2.5 3.5" stroke="#fff" stroke-width="2"/><path d="M49.098 35.477c-1.385 0-2.575-.188-3.569-.564-.994-.37-1.793-.867-2.397-1.492-.604-.625-1.023-1.317-1.257-2.077l3.473-.842c.156.32.383.636.682.948.298.32.7.583 1.204.789.511.213 1.154.32 1.928.32 1.094 0 2-.267 2.717-.8.717-.525 1.076-1.392 1.076-2.6v-3.1h-.192c-.2.398-.49.807-.874 1.226-.376.419-.877.77-1.502 1.055-.618.284-1.395.426-2.333.426-1.257 0-2.397-.295-3.42-.885-1.015-.596-1.825-1.484-2.429-2.663-.596-1.186-.895-2.67-.895-4.453 0-1.797.299-3.313.895-4.55.604-1.242 1.417-2.183 2.44-2.822 1.023-.647 2.162-.97 3.42-.97.958 0 1.747.164 2.365.49.625.32 1.122.707 1.491 1.162.37.447.65.87.842 1.267h.213v-2.706h3.803v16.63c0 1.4-.334 2.557-1.001 3.473-.668.917-1.58 1.602-2.738 2.056-1.158.455-2.472.682-3.942.682Zm.032-9.737c.817 0 1.513-.199 2.088-.596.575-.398 1.012-.97 1.31-1.716.299-.745.448-1.64.448-2.684 0-1.03-.15-1.932-.448-2.706-.29-.774-.724-1.375-1.3-1.8-.568-.434-1.267-.65-2.098-.65-.86 0-1.577.223-2.152.67-.575.448-1.009 1.062-1.3 1.844-.29.774-.436 1.654-.436 2.642 0 1.001.145 1.878.436 2.631.299.746.735 1.328 1.31 1.747.583.412 1.297.618 2.142.618ZM60.731 29V12.636h3.74v2.728h.17c.299-.945.81-1.673 1.534-2.184.732-.519 1.567-.778 2.504-.778.213 0 .451.01.714.032.27.014.493.039.67.075v3.547c-.162-.057-.422-.106-.777-.149a7.143 7.143 0 0 0-1.012-.075c-.703 0-1.335.153-1.896.459-.554.298-.99.713-1.31 1.246-.32.533-.48 1.147-.48 1.843V29h-3.856Zm16.31.33c-1.036 0-1.97-.184-2.8-.554a4.572 4.572 0 0 1-1.961-1.662c-.476-.731-.714-1.633-.714-2.706 0-.923.17-1.686.511-2.29a3.957 3.957 0 0 1 1.396-1.449 7.042 7.042 0 0 1 1.992-.82c.746-.192 1.516-.33 2.312-.416.959-.1 1.736-.188 2.333-.266.597-.085 1.03-.213 1.3-.384.277-.177.415-.45.415-.82V17.9c0-.802-.238-1.424-.713-1.864-.476-.44-1.162-.66-2.057-.66-.944 0-1.694.205-2.248.617-.546.412-.916.899-1.107 1.46l-3.601-.512c.284-.994.753-1.825 1.406-2.493.653-.674 1.452-1.178 2.397-1.512.945-.341 1.989-.512 3.132-.512.788 0 1.573.093 2.354.277.782.185 1.495.49 2.142.917.646.418 1.165.99 1.555 1.715.398.724.597 1.63.597 2.716V29h-3.708v-2.248h-.127c-.235.455-.565.88-.991 1.279-.42.39-.948.706-1.587.948-.633.234-1.375.351-2.227.351Zm1.002-2.834c.774 0 1.446-.152 2.014-.458a3.387 3.387 0 0 0 1.31-1.235 3.148 3.148 0 0 0 .469-1.673v-1.928c-.12.1-.327.191-.618.277-.284.085-.604.16-.959.223-.355.064-.706.121-1.055.17l-.905.129a6.735 6.735 0 0 0-1.545.383c-.454.178-.813.426-1.076.746-.263.313-.394.717-.394 1.215 0 .71.26 1.246.778 1.608.518.362 1.179.543 1.981.543ZM89.56 29V12.636h3.686v2.78h.192c.34-.937.905-1.668 1.693-2.194.789-.532 1.73-.799 2.823-.799 1.109 0 2.042.27 2.802.81.767.533 1.307 1.26 1.62 2.184h.17c.362-.91.973-1.634 1.833-2.173.866-.547 1.892-.82 3.078-.82 1.506 0 2.735.475 3.686 1.427.952.952 1.428 2.34 1.428 4.165V29h-3.867V18.613c0-1.016-.27-1.758-.81-2.227-.54-.475-1.2-.713-1.981-.713-.931 0-1.659.29-2.184.873-.519.575-.778 1.325-.778 2.248V29h-3.782V18.453c0-.845-.256-1.52-.767-2.024-.504-.504-1.165-.756-1.981-.756-.555 0-1.059.142-1.513.426a2.973 2.973 0 0 0-1.087 1.182c-.27.505-.405 1.094-.405 1.769V29H89.56Zm26.923 0V12.636h3.687v2.78h.191c.341-.937.906-1.668 1.694-2.194.789-.532 1.73-.799 2.823-.799 1.108 0 2.042.27 2.802.81.767.533 1.307 1.26 1.62 2.184h.17c.362-.91.973-1.634 1.832-2.173.867-.547 1.893-.82 3.079-.82 1.506 0 2.735.475 3.686 1.427.952.952 1.428 2.34 1.428 4.165V29h-3.867V18.613c0-1.016-.27-1.758-.81-2.227-.54-.475-1.2-.713-1.982-.713-.93 0-1.658.29-2.183.873-.519.575-.778 1.325-.778 2.248V29h-3.782V18.453c0-.845-.256-1.52-.767-2.024-.504-.504-1.165-.756-1.982-.756-.554 0-1.058.142-1.513.426a2.976 2.976 0 0 0-1.086 1.182c-.27.505-.405 1.094-.405 1.769V29h-3.857Zm31.633.33c-1.037 0-1.971-.184-2.802-.554a4.57 4.57 0 0 1-1.96-1.662c-.476-.731-.714-1.633-.714-2.706 0-.923.171-1.686.512-2.29a3.96 3.96 0 0 1 1.395-1.449 7.054 7.054 0 0 1 1.992-.82c.746-.192 1.517-.33 2.312-.416.959-.1 1.737-.188 2.333-.266.597-.085 1.03-.213 1.3-.384.277-.177.416-.45.416-.82V17.9c0-.802-.238-1.424-.714-1.864-.476-.44-1.161-.66-2.056-.66-.945 0-1.694.205-2.248.617-.547.412-.916.899-1.108 1.46l-3.601-.512c.284-.994.753-1.825 1.406-2.493a6.126 6.126 0 0 1 2.397-1.512c.945-.341 1.989-.512 3.132-.512.789 0 1.573.093 2.355.277a6.62 6.62 0 0 1 2.141.917c.646.418 1.165.99 1.555 1.715.398.724.597 1.63.597 2.716V29h-3.707v-2.248h-.128c-.235.455-.565.88-.991 1.279-.419.39-.948.706-1.587.948-.632.234-1.375.351-2.227.351Zm1.002-2.834c.774 0 1.445-.152 2.013-.458a3.385 3.385 0 0 0 1.31-1.235 3.144 3.144 0 0 0 .469-1.673v-1.928c-.121.1-.327.191-.618.277-.284.085-.603.16-.959.223-.355.064-.706.121-1.054.17l-.906.129a6.748 6.748 0 0 0-1.545.383c-.454.178-.813.426-1.076.746-.262.313-.394.717-.394 1.215 0 .71.26 1.246.778 1.608.518.362 1.179.543 1.982.543ZM160.634 29V12.636h3.739v2.728h.171c.298-.945.809-1.673 1.534-2.184.731-.519 1.566-.778 2.503-.778.213 0 .451.01.714.032.27.014.494.039.671.075v3.547c-.163-.057-.422-.106-.777-.149a7.153 7.153 0 0 0-1.013-.075c-.703 0-1.335.153-1.896.459a3.348 3.348 0 0 0-1.31 1.246c-.32.533-.48 1.147-.48 1.843V29h-3.856Zm15.751-21.818V29h-3.857V7.182h3.857Zm6.363 27.954a7.808 7.808 0 0 1-1.46-.128 5.413 5.413 0 0 1-1.055-.277l.895-3.004c.561.164 1.062.242 1.503.235.44-.008.827-.146 1.161-.416.341-.263.628-.703.863-1.32l.33-.885-5.934-16.705h4.091l3.771 12.358h.171l3.782-12.358h4.101l-6.552 18.346c-.305.866-.71 1.608-1.214 2.226a4.933 4.933 0 0 1-1.854 1.428c-.724.333-1.591.5-2.599.5Z" fill="#A6A6A6"/></svg><svg fill="none" viewBox="0 0 201 36" id="l-intercom" xmlns="http://www.w3.org/2000/svg"><path d="M46.104 7.182V29h-3.952V7.182h3.952Zm22.21 0V29H64.8L54.518 14.139h-.181V29h-3.953V7.182h3.537l10.27 14.872h.192V7.182h3.931Zm3.348 3.313V7.182H89.07v3.313h-6.744V29h-3.92V10.495h-6.744ZM92.425 29V7.182h14.191v3.313H96.378v5.923h9.503v3.314h-9.503v5.955H106.7V29H92.425Zm18.223 0V7.182h8.182c1.676 0 3.082.291 4.219.873 1.143.583 2.006 1.4 2.588 2.45.59 1.045.885 2.263.885 3.655 0 1.399-.299 2.613-.895 3.643-.59 1.023-1.46 1.815-2.61 2.376-1.151.554-2.564.83-4.24.83h-5.828v-3.28h5.295c.98 0 1.783-.135 2.408-.405.625-.277 1.086-.678 1.385-1.204.305-.533.458-1.186.458-1.96s-.153-1.435-.458-1.982c-.306-.554-.771-.973-1.396-1.257-.625-.291-1.431-.437-2.418-.437H114.6V29h-3.952Zm11.271-9.886L127.321 29h-4.411l-5.305-9.886h4.314Zm26.916-4.57h-3.984a4.955 4.955 0 0 0-.629-1.737 4.658 4.658 0 0 0-1.14-1.3 4.748 4.748 0 0 0-1.555-.799 6.066 6.066 0 0 0-1.864-.277c-1.186 0-2.238.298-3.154.895-.916.59-1.633 1.456-2.152 2.6-.518 1.136-.777 2.524-.777 4.165 0 1.669.259 3.075.777 4.219.526 1.136 1.243 1.995 2.152 2.578.916.575 1.964.863 3.143.863.653 0 1.264-.085 1.832-.256a5.003 5.003 0 0 0 1.545-.778c.462-.34.849-.76 1.161-1.257.32-.497.54-1.065.661-1.704l3.984.021a8.579 8.579 0 0 1-.969 2.919 8.611 8.611 0 0 1-1.928 2.408 8.895 8.895 0 0 1-2.792 1.619c-1.065.384-2.248.575-3.547.575-1.918 0-3.63-.444-5.135-1.331-1.506-.888-2.692-2.17-3.558-3.846-.867-1.676-1.3-3.686-1.3-6.03 0-2.35.437-4.36 1.31-6.03.874-1.676 2.063-2.958 3.569-3.846 1.506-.888 3.21-1.331 5.114-1.331 1.214 0 2.343.17 3.388.51a8.68 8.68 0 0 1 2.791 1.503 7.996 7.996 0 0 1 2.013 2.408c.533.944.881 2.024 1.044 3.238Zm23.115 3.547c0 2.35-.44 4.364-1.321 6.04-.873 1.67-2.066 2.948-3.579 3.836-1.506.887-3.214 1.331-5.124 1.331-1.911 0-3.623-.444-5.135-1.331-1.506-.895-2.699-2.177-3.58-3.846-.873-1.676-1.31-3.686-1.31-6.03 0-2.35.437-4.36 1.31-6.03.881-1.676 2.074-2.958 3.58-3.846 1.512-.888 3.224-1.331 5.135-1.331 1.91 0 3.618.443 5.124 1.331 1.513.888 2.706 2.17 3.579 3.846.881 1.67 1.321 3.68 1.321 6.03Zm-3.973 0c0-1.655-.259-3.05-.778-4.187-.511-1.143-1.222-2.006-2.131-2.589-.909-.59-1.956-.884-3.142-.884s-2.234.295-3.143.884c-.909.583-1.623 1.446-2.141 2.59-.512 1.136-.768 2.531-.768 4.186 0 1.655.256 3.054.768 4.197.518 1.137 1.232 2 2.141 2.59.909.581 1.957.873 3.143.873 1.186 0 2.233-.292 3.142-.874.909-.59 1.62-1.452 2.131-2.589.519-1.143.778-2.542.778-4.197Zm7.71-10.91h4.837l6.477 15.81h.256l6.477-15.81h4.837V29h-3.793V14.01h-.202l-6.03 14.926h-2.834l-6.03-14.957h-.202V29h-3.793V7.182Z" fill="#A6A6A6"/><rect y="3" width="30" height="30" rx="3" fill="#A6A6A6"/><path fill="#fff" d="M4 10h2v12H4zM9 7h2v18H9zM14 7h2v18h-2zM19 7h2v18h-2z"/><path d="M5 27c2.833 2.264 11 5.433 21 0" stroke="#fff" stroke-width="2" stroke-linecap="round"/><path fill="#fff" d="M24 10h2v12h-2z"/></svg><svg fill="none" viewBox="0 0 145 36" id="l-notion" xmlns="http://www.w3.org/2000/svg"><path d="M68.082 7.182V29h-3.516l-10.28-14.861h-.182V29h-3.952V7.182h3.537l10.27 14.872h.192V7.182h3.93ZM79.356 29.32c-1.598 0-2.983-.352-4.155-1.055-1.172-.703-2.081-1.687-2.727-2.951-.64-1.264-.96-2.742-.96-4.432 0-1.69.32-3.171.96-4.442.646-1.272 1.555-2.259 2.727-2.962 1.172-.703 2.557-1.055 4.155-1.055 1.598 0 2.983.352 4.154 1.055 1.172.703 2.078 1.69 2.717 2.962.646 1.27.97 2.752.97 4.442 0 1.69-.324 3.168-.97 4.432-.64 1.264-1.545 2.248-2.717 2.95-1.171.704-2.556 1.056-4.154 1.056Zm.021-3.09c.866 0 1.59-.238 2.173-.714.583-.483 1.016-1.129 1.3-1.939.291-.81.437-1.711.437-2.706 0-1.001-.146-1.906-.437-2.716-.284-.817-.717-1.467-1.3-1.95-.582-.483-1.307-.724-2.173-.724-.888 0-1.626.241-2.216.724-.582.483-1.02 1.133-1.31 1.95-.284.81-.427 1.715-.427 2.716 0 .995.143 1.897.427 2.706.29.81.728 1.456 1.31 1.94.59.475 1.328.713 2.216.713Zm19.264-13.594v2.983h-9.407v-2.983h9.407Zm-7.085-3.92h3.857v15.362c0 .519.078.916.234 1.193.164.27.377.455.64.554.262.1.554.15.873.15.242 0 .462-.018.66-.054.207-.035.363-.067.47-.096l.65 3.015c-.207.071-.501.15-.885.235a7.241 7.241 0 0 1-1.385.149c-.966.028-1.836-.117-2.61-.437a4.06 4.06 0 0 1-1.843-1.513c-.448-.682-.668-1.534-.66-2.557V8.716ZM101.867 29V12.636h3.857V29h-3.857Zm1.939-18.686a2.247 2.247 0 0 1-1.576-.607c-.441-.412-.661-.906-.661-1.481 0-.583.22-1.076.661-1.481.44-.412.965-.618 1.576-.618.618 0 1.144.206 1.577.618.44.405.66.898.66 1.48 0 .576-.22 1.07-.66 1.482-.433.404-.959.607-1.577.607Zm13.021 19.006c-1.598 0-2.983-.352-4.154-1.055-1.172-.703-2.081-1.687-2.728-2.951-.639-1.264-.959-2.742-.959-4.432 0-1.69.32-3.171.959-4.442.647-1.272 1.556-2.259 2.728-2.962 1.171-.703 2.556-1.055 4.154-1.055 1.598 0 2.983.352 4.155 1.055 1.172.703 2.078 1.69 2.717 2.962.646 1.27.969 2.752.969 4.442 0 1.69-.323 3.168-.969 4.432-.639 1.264-1.545 2.248-2.717 2.95-1.172.704-2.557 1.056-4.155 1.056Zm.022-3.09c.866 0 1.591-.238 2.173-.714.582-.483 1.016-1.129 1.3-1.939.291-.81.436-1.711.436-2.706 0-1.001-.145-1.906-.436-2.716-.284-.817-.718-1.467-1.3-1.95-.582-.483-1.307-.724-2.173-.724-.888 0-1.627.241-2.216.724-.583.483-1.019 1.133-1.311 1.95-.284.81-.426 1.715-.426 2.716 0 .995.142 1.897.426 2.706.292.81.728 1.456 1.311 1.94.589.475 1.328.713 2.216.713Zm14.949-6.818V29h-3.856V12.636h3.686v2.78h.191a4.68 4.68 0 0 1 1.801-2.183c.831-.54 1.857-.81 3.079-.81 1.129 0 2.113.242 2.951.725.845.483 1.498 1.182 1.96 2.098.469.917.699 2.028.692 3.335V29h-3.856v-9.822c0-1.094-.284-1.95-.852-2.568-.562-.618-1.339-.927-2.334-.927-.674 0-1.274.15-1.8.448a3.103 3.103 0 0 0-1.225 1.267c-.291.554-.437 1.226-.437 2.014ZM28.388 14.454V29h-2.344l-6.854-9.908h-.12V29h-2.635V14.454h2.358l6.846 9.915h.128v-9.915h2.62Z" fill="#A6A6A6"/><path stroke="#A6A6A6" stroke-width="2" d="M9 9h28v26H9zM2.661 2l5.715 5h26.963l-5.715-5H2.661Z"/><path d="M8 8 0 1v28l8 7V8Z" fill="#A6A6A6"/></svg><svg fill="none" viewBox="0 0 180 38" id="l-unsplash" xmlns="http://www.w3.org/2000/svg"><path d="M60.2 9.182h3.953v14.254c0 1.563-.37 2.937-1.108 4.123-.732 1.186-1.761 2.113-3.09 2.78-1.328.661-2.88.991-4.655.991-1.783 0-3.338-.33-4.666-.99-1.328-.668-2.358-1.595-3.09-2.781-.731-1.186-1.097-2.56-1.097-4.123V9.182h3.952v13.924c0 .909.2 1.719.597 2.429.405.71.973 1.268 1.704 1.672.732.398 1.598.597 2.6.597 1.001 0 1.868-.199 2.6-.597a4.248 4.248 0 0 0 1.704-1.672c.398-.71.596-1.52.596-2.43V9.183Zm11.935 12.23V31h-3.857V14.636h3.686v2.78h.192a4.677 4.677 0 0 1 1.8-2.183c.832-.54 1.858-.81 3.08-.81 1.129 0 2.112.242 2.95.725.846.483 1.5 1.182 1.96 2.098.47.917.7 2.028.693 3.335V31h-3.856v-9.822c0-1.094-.284-1.95-.853-2.568-.56-.618-1.338-.927-2.333-.927-.674 0-1.275.15-1.8.448a3.102 3.102 0 0 0-1.225 1.267c-.291.554-.437 1.226-.437 2.014Zm27.358-2.45-3.516.383a2.826 2.826 0 0 0-.522-1.001 2.59 2.59 0 0 0-.98-.757c-.412-.191-.916-.287-1.513-.287-.802 0-1.477.174-2.024.522-.54.348-.806.799-.799 1.353-.007.476.167.863.522 1.16.362.3.959.544 1.79.736l2.791.597c1.548.333 2.7.863 3.452 1.587.76.724 1.143 1.673 1.15 2.844-.007 1.03-.308 1.94-.905 2.728-.59.781-1.41 1.392-2.461 1.832-1.051.44-2.258.66-3.622.66-2.003 0-3.615-.418-4.837-1.256-1.221-.846-1.95-2.021-2.184-3.527l3.76-.362c.171.739.534 1.296 1.088 1.673.553.376 1.274.564 2.162.564.916 0 1.651-.188 2.205-.564.562-.377.842-.842.842-1.396 0-.469-.181-.856-.543-1.161-.355-.306-.91-.54-1.662-.703L90.896 24c-1.57-.327-2.731-.877-3.484-1.652-.753-.78-1.126-1.768-1.119-2.961-.007-1.009.267-1.882.82-2.621.562-.746 1.34-1.321 2.334-1.726 1.001-.412 2.155-.618 3.462-.618 1.918 0 3.427.409 4.528 1.225 1.108.817 1.793 1.922 2.056 3.314Zm3.532 18.174v-22.5h3.792v2.706h.224a7.11 7.11 0 0 1 .841-1.267c.363-.455.853-.842 1.471-1.162.618-.326 1.406-.49 2.365-.49 1.264 0 2.404.323 3.419.97 1.023.639 1.833 1.587 2.429 2.844.604 1.25.906 2.784.906 4.603 0 1.796-.295 3.323-.884 4.58-.59 1.258-1.392 2.216-2.408 2.877-1.016.66-2.166.99-3.452.99-.937 0-1.715-.156-2.333-.468-.618-.313-1.115-.689-1.491-1.13a7.275 7.275 0 0 1-.863-1.267h-.16v8.714h-3.856Zm3.781-14.318c0 1.058.15 1.985.448 2.78.305.796.742 1.418 1.31 1.865.576.44 1.272.66 2.088.66.853 0 1.566-.227 2.142-.681.575-.462 1.008-1.09 1.299-1.886.299-.802.448-1.715.448-2.738 0-1.015-.146-1.917-.437-2.706-.291-.788-.724-1.406-1.3-1.853-.575-.448-1.292-.672-2.152-.672-.824 0-1.523.217-2.098.65-.576.434-1.012 1.04-1.311 1.822-.291.781-.437 1.7-.437 2.76Zm18.825-13.636V31h-3.856V9.182h3.856Zm8.675 22.148c-1.037 0-1.971-.184-2.802-.554a4.565 4.565 0 0 1-1.96-1.662c-.476-.731-.714-1.633-.714-2.706 0-.923.17-1.686.511-2.29a3.955 3.955 0 0 1 1.396-1.449 7.03 7.03 0 0 1 1.992-.82c.746-.192 1.516-.33 2.312-.416.958-.1 1.736-.188 2.333-.266.596-.085 1.03-.213 1.299-.384.277-.177.416-.45.416-.82V19.9c0-.802-.238-1.424-.714-1.864-.476-.44-1.161-.66-2.056-.66-.945 0-1.694.205-2.248.617-.547.412-.916.899-1.108 1.46l-3.601-.512c.284-.994.753-1.825 1.407-2.493.653-.674 1.452-1.178 2.397-1.512.944-.341 1.988-.512 3.132-.512.788 0 1.573.093 2.354.277.781.185 1.495.49 2.142.917.646.418 1.164.99 1.555 1.715.398.724.596 1.63.596 2.716V31h-3.707v-2.248h-.128c-.234.455-.564.88-.991 1.279-.419.39-.948.706-1.587.948-.632.234-1.374.351-2.226.351Zm1.001-2.834c.774 0 1.445-.152 2.013-.458a3.388 3.388 0 0 0 1.311-1.235 3.153 3.153 0 0 0 .469-1.673v-1.928c-.121.1-.327.191-.618.277-.284.085-.604.16-.959.223-.355.064-.707.121-1.055.17l-.905.129a6.722 6.722 0 0 0-1.545.383c-.455.178-.813.426-1.076.746-.263.313-.394.717-.394 1.215 0 .71.259 1.246.777 1.608.519.362 1.179.543 1.982.543Zm24.45-9.534-3.516.383a2.81 2.81 0 0 0-.522-1.001 2.594 2.594 0 0 0-.98-.757c-.412-.191-.916-.287-1.513-.287-.803 0-1.477.174-2.024.522-.54.348-.806.799-.799 1.353-.007.476.167.863.522 1.16.362.3.959.544 1.79.736l2.791.597c1.548.333 2.699.863 3.452 1.587.76.724 1.143 1.673 1.15 2.844-.007 1.03-.309 1.94-.905 2.728-.59.781-1.41 1.392-2.461 1.832-1.051.44-2.259.66-3.623.66-2.002 0-3.615-.418-4.836-1.256-1.222-.846-1.95-2.021-2.184-3.527l3.761-.362c.17.739.532 1.296 1.086 1.673.554.376 1.275.564 2.163.564.916 0 1.651-.188 2.205-.564.561-.377.842-.842.842-1.396 0-.469-.181-.856-.544-1.161-.355-.306-.909-.54-1.662-.703L151.159 24c-1.569-.327-2.731-.877-3.483-1.652-.753-.78-1.126-1.768-1.119-2.961-.007-1.009.266-1.882.82-2.621.561-.746 1.339-1.321 2.333-1.726 1.002-.412 2.156-.618 3.463-.618 1.917 0 3.427.409 4.527 1.225 1.108.817 1.794 1.922 2.057 3.314Zm7.388 2.45V31h-3.857V9.182h3.771v8.235h.192c.384-.923.977-1.651 1.779-2.184.81-.54 1.84-.81 3.09-.81 1.136 0 2.127.238 2.972.714.845.476 1.499 1.172 1.96 2.088.469.916.704 2.035.704 3.356V31h-3.857v-9.822c0-1.101-.284-1.957-.852-2.568-.561-.618-1.35-.927-2.365-.927-.682 0-1.293.15-1.833.448a3.14 3.14 0 0 0-1.257 1.267c-.298.554-.447 1.226-.447 2.014ZM11 0h12v9H11zM0 23h34v9H0z" fill="#A6A6A6"/><path fill="#A6A6A6" d="M24 14h10v18H24zM0 14h10v18H0z"/></svg><svg fill="none" viewBox="0 0 34 34" id="play" xmlns="http://www.w3.org/2000/svg"><path clip-rule="evenodd" d="M17 1.167c8.743 0 15.833 7.088 15.833 15.833 0 8.745-7.09 15.833-15.833 15.833-8.745 0-15.833-7.088-15.833-15.833C1.167 8.255 8.255 1.167 17 1.167Z" stroke="#191A15" stroke-width="1.5" stroke-linecap="round" stroke-linejoin="round"/><path clip-rule="evenodd" d="M22 16.992c0-1.352-6.93-5.677-7.715-4.9-.786.778-.862 8.948 0 9.799.861.854 7.715-3.547 7.715-4.9Z" stroke="#191A15" stroke-width="1.5" stroke-linecap="round" stroke-linejoin="round"/></svg><svg fill="none" viewBox="0 0 30 30" id="pulse" xmlns="http://www.w3.org/2000/svg"><path d="M27.5 15h-5l-3.75 11.25-7.5-22.5L7.5 15h-5" stroke="#54BD95" stroke-width="2" stroke-linecap="round" stroke-linejoin="round"/></svg><svg fill="none" viewBox="0 0 45 38" id="quote" xmlns="http://www.w3.org/2000/svg"><path d="M11.5 0h10l-7 38H0L11.5 0ZM35 0h10l-7 38H23.5L35 0Z" fill="#D9D9D9"/></svg><svg fill="none" viewBox="0 0 26 24" id="star-empty" xmlns="http://www.w3.org/2000/svg"><path d="m13 0 2.919 8.983h9.445l-7.642 5.551 2.92 8.983L13 17.966l-7.641 5.551 2.918-8.983-7.64-5.551h9.444L13 0Z" fill="#BBB"/></svg><svg fill="none" viewBox="0 0 26 24" id="star-full" xmlns="http://www.w3.org/2000/svg"><path d="m13 0 2.919 8.983h9.445l-7.642 5.551 2.92 8.983L13 17.966l-7.641 5.551 2.918-8.983-7.64-5.551h9.444L13 0Z" fill="#FFC728"/></svg></svg>